<mxfile host="www.draw.io" modified="2019-10-26T09:55:24.345Z" agent="Mozilla/5.0 (Macintosh; Intel Mac OS X 10_13_6) AppleWebKit/537.36 (KHTML, like Gecko) Chrome/77.0.3865.120 Safari/537.36" etag="8_85O1nn_1LDQQzi-e-j" version="12.1.7" type="github" pages="1">
  <diagram id="QLN5XQVOQX08xVFIctB4" name="Page-1">
    <mxGraphModel dx="772" dy="429" grid="0" gridSize="10" guides="1" tooltips="1" connect="1" arrows="1" fold="1" page="0" pageScale="1" pageWidth="827" pageHeight="1169" math="0" shadow="0">
      <root>
        <mxCell id="0"/>
        <mxCell id="1" parent="0"/>
        <mxCell id="K42rxNocJr1abKFL2GFb-1" value="Main" style="shape=umlLifeline;perimeter=lifelinePerimeter;whiteSpace=wrap;html=1;container=1;collapsible=0;recursiveResize=0;outlineConnect=0;" vertex="1" parent="1">
          <mxGeometry x="125" y="157" width="100" height="593" as="geometry"/>
        </mxCell>
        <mxCell id="K42rxNocJr1abKFL2GFb-4" value="" style="html=1;points=[];perimeter=orthogonalPerimeter;" vertex="1" parent="K42rxNocJr1abKFL2GFb-1">
          <mxGeometry x="45" y="103" width="10" height="40" as="geometry"/>
        </mxCell>
        <mxCell id="K42rxNocJr1abKFL2GFb-5" value="开启本地主事务&lt;br&gt;生成全局TID" style="edgeStyle=orthogonalEdgeStyle;html=1;align=left;spacingLeft=2;endArrow=block;rounded=0;entryX=1;entryY=0;" edge="1" target="K42rxNocJr1abKFL2GFb-4" parent="K42rxNocJr1abKFL2GFb-1">
          <mxGeometry relative="1" as="geometry">
            <mxPoint x="50" y="83" as="sourcePoint"/>
            <Array as="points">
              <mxPoint x="75" y="83"/>
            </Array>
          </mxGeometry>
        </mxCell>
        <mxCell id="K42rxNocJr1abKFL2GFb-19" value="" style="html=1;points=[];perimeter=orthogonalPerimeter;" vertex="1" parent="K42rxNocJr1abKFL2GFb-1">
          <mxGeometry x="45" y="317" width="10" height="40" as="geometry"/>
        </mxCell>
        <mxCell id="K42rxNocJr1abKFL2GFb-20" value="执行本地事务" style="edgeStyle=orthogonalEdgeStyle;html=1;align=left;spacingLeft=2;endArrow=block;rounded=0;entryX=1;entryY=0;" edge="1" target="K42rxNocJr1abKFL2GFb-19" parent="K42rxNocJr1abKFL2GFb-1">
          <mxGeometry relative="1" as="geometry">
            <mxPoint x="50" y="297" as="sourcePoint"/>
            <Array as="points">
              <mxPoint x="75" y="297"/>
            </Array>
          </mxGeometry>
        </mxCell>
        <mxCell id="K42rxNocJr1abKFL2GFb-31" value="" style="html=1;points=[];perimeter=orthogonalPerimeter;" vertex="1" parent="K42rxNocJr1abKFL2GFb-1">
          <mxGeometry x="45" y="516" width="10" height="40" as="geometry"/>
        </mxCell>
        <mxCell id="K42rxNocJr1abKFL2GFb-32" value="endTranscation" style="edgeStyle=orthogonalEdgeStyle;html=1;align=left;spacingLeft=2;endArrow=block;rounded=0;entryX=1;entryY=0;" edge="1" target="K42rxNocJr1abKFL2GFb-31" parent="K42rxNocJr1abKFL2GFb-1">
          <mxGeometry relative="1" as="geometry">
            <mxPoint x="50" y="496" as="sourcePoint"/>
            <Array as="points">
              <mxPoint x="75" y="496"/>
            </Array>
          </mxGeometry>
        </mxCell>
        <mxCell id="K42rxNocJr1abKFL2GFb-2" value="part1" style="shape=umlLifeline;perimeter=lifelinePerimeter;whiteSpace=wrap;html=1;container=1;collapsible=0;recursiveResize=0;outlineConnect=0;" vertex="1" parent="1">
          <mxGeometry x="270" y="157" width="100" height="537" as="geometry"/>
        </mxCell>
        <mxCell id="K42rxNocJr1abKFL2GFb-6" value="" style="html=1;points=[];perimeter=orthogonalPerimeter;" vertex="1" parent="K42rxNocJr1abKFL2GFb-2">
          <mxGeometry x="45" y="177" width="10" height="39" as="geometry"/>
        </mxCell>
        <mxCell id="K42rxNocJr1abKFL2GFb-3" value="part2" style="shape=umlLifeline;perimeter=lifelinePerimeter;whiteSpace=wrap;html=1;container=1;collapsible=0;recursiveResize=0;outlineConnect=0;" vertex="1" parent="1">
          <mxGeometry x="406" y="157" width="100" height="490" as="geometry"/>
        </mxCell>
        <mxCell id="K42rxNocJr1abKFL2GFb-14" value="" style="html=1;points=[];perimeter=orthogonalPerimeter;" vertex="1" parent="K42rxNocJr1abKFL2GFb-3">
          <mxGeometry x="46" y="237" width="10" height="43" as="geometry"/>
        </mxCell>
        <mxCell id="K42rxNocJr1abKFL2GFb-7" value="try1" style="html=1;verticalAlign=bottom;endArrow=block;entryX=0;entryY=0;" edge="1" target="K42rxNocJr1abKFL2GFb-6" parent="1" source="K42rxNocJr1abKFL2GFb-1">
          <mxGeometry relative="1" as="geometry">
            <mxPoint x="245" y="334" as="sourcePoint"/>
          </mxGeometry>
        </mxCell>
        <mxCell id="K42rxNocJr1abKFL2GFb-8" value="return" style="html=1;verticalAlign=bottom;endArrow=open;dashed=1;endSize=8;exitX=0;exitY=0.95;" edge="1" source="K42rxNocJr1abKFL2GFb-6" parent="1" target="K42rxNocJr1abKFL2GFb-1">
          <mxGeometry relative="1" as="geometry">
            <mxPoint x="245" y="410" as="targetPoint"/>
          </mxGeometry>
        </mxCell>
        <mxCell id="K42rxNocJr1abKFL2GFb-15" value="try2" style="html=1;verticalAlign=bottom;endArrow=block;entryX=0;entryY=0;" edge="1" target="K42rxNocJr1abKFL2GFb-14" parent="1" source="K42rxNocJr1abKFL2GFb-1">
          <mxGeometry relative="1" as="geometry">
            <mxPoint x="382" y="394" as="sourcePoint"/>
          </mxGeometry>
        </mxCell>
        <mxCell id="K42rxNocJr1abKFL2GFb-16" value="return" style="html=1;verticalAlign=bottom;endArrow=open;dashed=1;endSize=8;exitX=0;exitY=0.95;" edge="1" source="K42rxNocJr1abKFL2GFb-14" parent="1" target="K42rxNocJr1abKFL2GFb-1">
          <mxGeometry relative="1" as="geometry">
            <mxPoint x="382" y="470" as="targetPoint"/>
          </mxGeometry>
        </mxCell>
        <mxCell id="K42rxNocJr1abKFL2GFb-21" value="" style="html=1;points=[];perimeter=orthogonalPerimeter;" vertex="1" parent="1">
          <mxGeometry x="317" y="529" width="10" height="39" as="geometry"/>
        </mxCell>
        <mxCell id="K42rxNocJr1abKFL2GFb-22" value="" style="html=1;points=[];perimeter=orthogonalPerimeter;" vertex="1" parent="1">
          <mxGeometry x="454" y="589" width="10" height="43" as="geometry"/>
        </mxCell>
        <mxCell id="K42rxNocJr1abKFL2GFb-23" value="comfirm or cancel" style="html=1;verticalAlign=bottom;endArrow=block;entryX=0;entryY=0;" edge="1" parent="1" target="K42rxNocJr1abKFL2GFb-21">
          <mxGeometry relative="1" as="geometry">
            <mxPoint x="176.5" y="529" as="sourcePoint"/>
          </mxGeometry>
        </mxCell>
        <mxCell id="K42rxNocJr1abKFL2GFb-24" value="return" style="html=1;verticalAlign=bottom;endArrow=open;dashed=1;endSize=8;exitX=0;exitY=0.95;" edge="1" parent="1" source="K42rxNocJr1abKFL2GFb-21">
          <mxGeometry relative="1" as="geometry">
            <mxPoint x="176.5" y="566.05" as="targetPoint"/>
          </mxGeometry>
        </mxCell>
        <mxCell id="K42rxNocJr1abKFL2GFb-25" value="comfirm or cancel" style="html=1;verticalAlign=bottom;endArrow=block;entryX=0;entryY=0;" edge="1" parent="1" target="K42rxNocJr1abKFL2GFb-22">
          <mxGeometry relative="1" as="geometry">
            <mxPoint x="176.5" y="589" as="sourcePoint"/>
          </mxGeometry>
        </mxCell>
        <mxCell id="K42rxNocJr1abKFL2GFb-26" value="return" style="html=1;verticalAlign=bottom;endArrow=open;dashed=1;endSize=8;exitX=0;exitY=0.95;" edge="1" parent="1" source="K42rxNocJr1abKFL2GFb-22">
          <mxGeometry relative="1" as="geometry">
            <mxPoint x="176.5" y="629.85" as="targetPoint"/>
          </mxGeometry>
        </mxCell>
        <mxCell id="K42rxNocJr1abKFL2GFb-33" value="Text" style="text;html=1;resizable=0;points=[];autosize=1;align=left;verticalAlign=top;spacingTop=-4;" vertex="1" parent="1">
          <mxGeometry x="667" y="459" width="32" height="14" as="geometry"/>
        </mxCell>
      </root>
    </mxGraphModel>
  </diagram>
</mxfile>
